<?xml version="1.0" standalone="no"?>
<!DOCTYPE svg PUBLIC "-//W3C//DTD SVG 20010904//EN"
 "http://www.w3.org/TR/2001/REC-SVG-20010904/DTD/svg10.dtd">
<svg version="1.0" xmlns="http://www.w3.org/2000/svg"
 width="1200.000000pt" height="674.000000pt" viewBox="0 0 1200.000000 674.000000"
 preserveAspectRatio="xMidYMid meet">

<g transform="translate(0.000000,674.000000) scale(0.100000,-0.100000)"
fill="#000000" stroke="none">
<path d="M3851 5666 c8 -8 78 -10 85 -3 4 4 -14 7 -41 7 -27 0 -46 -2 -44 -4z"/>
<path d="M3976 5660 c5 -5 38 -10 71 -11 55 -1 62 -4 65 -23 2 -11 6 -16 9
-11 4 6 3 20 -2 33 -8 20 -15 22 -81 22 -47 0 -69 -3 -62 -10z"/>
<path d="M3073 5653 c9 -2 25 -2 35 0 9 3 1 5 -18 5 -19 0 -27 -2 -17 -5z"/>
<path d="M3168 5653 c23 -2 59 -2 80 0 20 2 1 4 -43 4 -44 0 -61 -2 -37 -4z"/>
<path d="M3303 5654 c8 -8 367 -8 375 0 3 3 -82 6 -188 6 -106 0 -190 -3 -187
-6z"/>
<path d="M3723 5653 c9 -2 23 -2 30 0 6 3 -1 5 -18 5 -16 0 -22 -2 -12 -5z"/>
<path d="M3012 5595 c-32 -58 -41 -92 -22 -80 6 3 10 13 10 21 0 8 12 32 26
54 14 21 24 45 22 52 -2 6 -19 -14 -36 -47z"/>
<path d="M4130 5596 c0 -9 5 -16 10 -16 6 0 10 4 10 9 0 6 -4 13 -10 16 -5 3
-10 -1 -10 -9z"/>
<path d="M4156 5552 c-3 -5 6 -24 19 -42 30 -40 32 -33 6 16 -11 19 -22 31
-25 26z"/>
<path d="M2947 5464 c-20 -40 -21 -48 -7 -39 16 10 41 63 32 69 -5 3 -16 -11
-25 -30z"/>
<path d="M4200 5451 c0 -11 5 -23 10 -26 6 -3 10 3 10 14 0 11 -4 23 -10 26
-5 3 -10 -3 -10 -14z"/>
<path d="M4234 5384 c3 -9 6 -19 6 -24 0 -4 6 -10 14 -13 11 -5 11 -1 -1 24
-15 30 -30 40 -19 13z"/>
<path d="M2906 5373 c-4 -13 -12 -23 -17 -23 -5 0 -9 -5 -9 -12 0 -7 9 -3 21
9 12 11 19 27 17 34 -3 9 -7 6 -12 -8z"/>
<path d="M4270 5316 c0 -9 5 -16 10 -16 6 0 10 4 10 9 0 6 -4 13 -10 16 -5 3
-10 -1 -10 -9z"/>
<path d="M2850 5270 c-6 -11 -9 -31 -7 -43 4 -20 4 -19 6 4 0 14 6 30 13 37 6
6 9 14 6 18 -4 3 -12 -4 -18 -16z"/>
<path d="M4300 5252 c0 -9 45 -98 56 -111 2 -2 6 -2 9 1 3 3 -7 27 -21 54 -29
55 -44 74 -44 56z"/>
<path d="M2816 5202 c-4 -13 -5 -26 -2 -29 10 -11 18 4 14 29 l-4 23 -8 -23z"/>
<path d="M2871 5194 c0 -11 3 -14 6 -6 3 7 2 16 -1 19 -3 4 -6 -2 -5 -13z"/>
<path d="M2790 5138 c0 -6 -8 -20 -17 -30 -12 -13 -13 -22 -6 -29 6 -6 13 -7
16 -2 8 14 19 73 13 73 -3 0 -6 -5 -6 -12z"/>
<path d="M4370 5120 c0 -21 17 -46 25 -38 4 4 0 17 -9 30 -10 14 -16 17 -16 8z"/>
<path d="M2703 4969 c-27 -57 -53 -114 -57 -126 -4 -13 -12 -23 -17 -23 -6 0
-7 -5 -4 -11 4 -5 22 14 40 43 18 29 31 56 28 61 -3 4 3 17 12 27 9 10 18 24
19 32 1 7 10 28 20 46 9 18 16 38 14 44 -2 6 -27 -36 -55 -93z"/>
<path d="M4400 5050 c0 -11 5 -20 10 -20 6 0 15 -20 22 -45 11 -42 28 -61 28
-32 0 14 -49 117 -56 117 -2 0 -4 -9 -4 -20z"/>
<path d="M4470 4921 c0 -6 4 -13 10 -16 6 -3 7 1 4 9 -7 18 -14 21 -14 7z"/>
<path d="M4490 4878 c0 -7 5 -20 10 -28 8 -12 10 -11 10 7 0 12 -4 25 -10 28
-5 3 -10 0 -10 -7z"/>
<path d="M4520 4817 c0 -24 26 -78 33 -70 4 3 7 -2 7 -13 0 -10 8 -28 17 -39
15 -19 15 -19 9 9 -4 17 -16 42 -27 57 -10 15 -19 34 -19 42 0 9 -4 19 -10 22
-5 3 -10 0 -10 -8z"/>
<path d="M2595 4750 c-9 -17 -14 -37 -12 -43 2 -7 12 6 21 27 20 48 14 60 -9
16z"/>
<path d="M2556 4674 c-10 -25 1 -29 14 -5 6 12 7 21 1 21 -5 0 -12 -7 -15 -16z"/>
<path d="M4606 4634 c14 -32 14 -41 0 -82 -20 -58 -12 -68 12 -14 21 46 21 64
2 105 -20 40 -31 33 -14 -9z"/>
<path d="M2521 4608 c-8 -22 -3 -36 56 -141 7 -12 13 -16 13 -10 0 7 -14 38
-30 68 -21 39 -28 63 -24 80 8 31 -4 33 -15 3z"/>
<path d="M8556 4540 c-170 -20 -342 -81 -432 -155 -23 -19 -45 -35 -49 -35 -4
0 -25 14 -46 31 -49 38 -140 83 -210 103 -110 31 -248 37 -789 34 l-535 -3 -5
-755 -5 -755 -422 -3 -423 -2 0 744 c0 409 -3 751 -6 760 -5 14 -43 16 -315
16 l-309 0 -5 -22 c-3 -13 -4 -464 -3 -1003 l3 -980 1057 -3 1058 -2 2 372 3
373 285 6 c272 6 289 7 375 33 130 39 199 80 283 164 l73 73 102 -50 c131 -63
211 -90 432 -144 217 -54 279 -76 332 -122 96 -82 95 -202 -3 -283 -54 -44
-113 -62 -210 -62 -183 0 -300 92 -347 274 -9 32 -17 59 -19 61 -8 8 -580 -33
-589 -42 -12 -12 13 -143 41 -215 51 -134 156 -269 262 -339 61 -39 205 -89
323 -111 46 -9 153 -13 315 -13 233 1 250 2 350 28 58 15 137 43 176 62 40 19
74 35 77 35 3 0 7 -21 9 -47 l3 -48 863 0 864 0 0 195 c0 107 0 207 -1 222
l-1 28 -542 2 -543 3 -3 197 -2 198 492 2 493 3 0 200 0 200 -492 3 -493 2 0
160 0 160 530 0 530 0 0 215 0 215 -847 -2 -848 -3 -3 -52 c-2 -29 -5 -53 -8
-53 -2 0 -28 13 -57 30 -61 34 -152 65 -252 86 -85 18 -409 26 -519 14z m298
-380 c60 -18 137 -102 161 -175 l20 -60 40 0 c22 1 102 4 178 9 l137 8 0 -136
c0 -87 -4 -136 -10 -136 -6 0 -32 11 -58 23 -80 40 -251 94 -417 131 -287 65
-327 77 -372 119 -74 67 -32 183 82 225 36 14 184 9 239 -8z m-1395 -67 c97
-31 151 -106 151 -210 0 -91 -43 -153 -135 -194 -44 -19 -68 -22 -200 -23
l-150 -1 -3 210 c-1 115 0 215 2 222 9 21 265 18 335 -4z"/>
<path d="M1764 4513 l-430 -3 -159 -323 c-87 -177 -207 -422 -268 -543 l-110
-221 268 -539 c147 -297 271 -541 276 -544 5 -3 91 -5 191 -4 101 1 341 3 535
3 l352 1 37 78 c20 42 123 250 228 462 105 212 209 422 230 467 l40 83 -269
539 c-305 612 -261 553 -409 549 -44 -2 -275 -4 -512 -5z"/>
<path d="M4560 4483 c0 -4 5 -15 10 -23 8 -13 10 -13 10 2 0 9 -4 20 -10 23
-5 3 -10 3 -10 -2z"/>
<path d="M4547 4453 c-10 -9 -9 -53 2 -53 12 0 20 35 12 49 -4 6 -10 8 -14 4z"/>
<path d="M2600 4430 c0 -23 42 -107 47 -94 2 6 -8 33 -21 60 -14 27 -26 42
-26 34z"/>
<path d="M4522 4378 c-6 -6 -12 -19 -12 -27 0 -13 2 -13 16 1 9 9 15 21 13 27
-3 9 -8 8 -17 -1z"/>
<path d="M2660 4300 c0 -11 4 -20 9 -20 5 0 7 9 4 20 -3 11 -7 20 -9 20 -2 0
-4 -9 -4 -20z"/>
<path d="M4484 4312 c4 -6 -3 -30 -15 -52 -12 -22 -20 -42 -17 -45 3 -3 16 15
29 40 20 37 21 46 10 57 -11 10 -12 10 -7 0z"/>
<path d="M2700 4214 c0 -7 50 -104 63 -121 5 -7 13 -10 18 -7 5 3 1 14 -9 24
-10 11 -29 40 -41 65 -21 41 -31 54 -31 39z"/>
<path d="M4413 4155 c-13 -25 -23 -53 -23 -62 0 -10 14 9 30 42 33 66 33 65
23 65 -5 0 -18 -21 -30 -45z"/>
<path d="M2784 4066 c-3 -8 -1 -23 5 -33 9 -15 10 -13 11 15 0 34 -7 42 -16
18z"/>
<path d="M4367 4064 c-4 -4 -7 -14 -7 -23 0 -11 3 -12 11 -4 6 6 10 16 7 23
-2 6 -7 8 -11 4z"/>
<path d="M2806 4011 c-4 -7 -5 -15 -2 -18 9 -9 19 4 14 18 -4 11 -6 11 -12 0z"/>
<path d="M4340 4010 c0 -5 5 -10 10 -10 6 0 10 5 10 10 0 6 -4 10 -10 10 -5 0
-10 -4 -10 -10z"/>
<path d="M4316 3964 c-9 -24 -7 -28 9 -14 17 14 20 30 6 30 -5 0 -12 -7 -15
-16z"/>
<path d="M2831 3954 c0 -11 3 -14 6 -6 3 7 2 16 -1 19 -3 4 -6 -2 -5 -13z"/>
<path d="M2856 3934 c-4 -14 -5 -29 -2 -31 3 -3 8 7 12 21 3 15 4 29 1 32 -2
3 -8 -7 -11 -22z"/>
<path d="M4291 3912 c-7 -13 -11 -26 -8 -28 8 -8 29 25 25 38 -3 8 -9 4 -17
-10z"/>
<path d="M2870 3881 c0 -6 4 -13 10 -16 6 -3 7 1 4 9 -7 18 -14 21 -14 7z"/>
<path d="M4249 3833 c-5 -14 -8 -33 -7 -42 2 -9 11 3 20 27 9 23 12 42 7 42
-5 0 -14 -12 -20 -27z"/>
<path d="M2890 3833 c0 -4 5 -15 10 -23 8 -13 10 -13 10 2 0 9 -4 20 -10 23
-5 3 -10 3 -10 -2z"/>
<path d="M2920 3771 c0 -5 5 -13 11 -16 9 -6 25 -38 28 -58 2 -18 53 -108 58
-104 3 3 -14 44 -37 92 -40 80 -60 109 -60 86z"/>
<path d="M4210 3748 c0 -19 2 -20 10 -8 13 19 13 30 0 30 -5 0 -10 -10 -10
-22z"/>
<path d="M4180 3721 c0 -23 16 -36 23 -18 2 6 -2 18 -9 25 -12 11 -14 9 -14
-7z"/>
<path d="M4163 3650 c-6 -16 -8 -30 -3 -30 4 0 10 8 14 18 3 9 9 23 12 30 3 6
2 12 -3 12 -5 0 -14 -13 -20 -30z"/>
<path d="M4136 3582 c-11 -34 -45 -58 -64 -45 -11 6 -26 7 -42 1 -16 -6 -26
-5 -28 1 -2 6 -22 11 -43 11 -24 0 -38 -4 -34 -10 3 -5 0 -8 -7 -5 -7 2 -29 0
-48 -4 -25 -7 5 -9 107 -10 l142 -1 17 35 c9 20 14 38 11 41 -3 3 -8 -3 -11
-14z"/>
<path d="M3030 3562 c0 -28 21 -52 45 -52 14 0 25 5 25 10 0 6 -9 10 -19 10
-11 0 -27 10 -35 22 -9 12 -16 17 -16 10z"/>
<path d="M3620 3530 c0 -5 5 -10 11 -10 5 0 7 5 4 10 -3 6 -8 10 -11 10 -2 0
-4 -4 -4 -10z"/>
<path d="M3665 3530 c3 -5 11 -10 16 -10 6 0 7 5 4 10 -3 6 -11 10 -16 10 -6
0 -7 -4 -4 -10z"/>
<path d="M3145 3520 c-28 -7 -27 -8 13 -9 23 0 42 4 42 9 0 11 -11 11 -55 0z"/>
<path d="M3223 3519 c11 -7 23 -7 35 0 14 9 11 10 -18 10 -29 0 -32 -1 -17
-10z"/>
<path d="M3298 3523 c12 -2 30 -2 40 0 9 3 -1 5 -23 4 -22 0 -30 -2 -17 -4z"/>
<path d="M3413 3523 c32 -2 81 -2 110 0 29 2 3 3 -58 3 -60 0 -84 -1 -52 -3z"/>
<path d="M5014 2317 c-2 -7 -3 -80 -2 -162 l3 -150 74 -3 c81 -3 90 2 83 48
-4 27 -7 30 -42 28 -20 0 -42 2 -48 6 -8 5 -12 47 -12 127 l0 119 -25 0 c-14
0 -28 -6 -31 -13z"/>
<path d="M6450 2164 l0 -165 28 3 c25 3 27 6 30 59 l3 57 39 6 c52 8 74 48 67
120 -6 67 -30 86 -108 86 l-59 0 0 -166z m108 64 c2 -18 -3 -30 -16 -37 -25
-13 -32 -5 -32 36 0 30 3 34 23 31 15 -2 23 -11 25 -30z"/>
<path d="M7527 2324 c-4 -4 -7 -27 -7 -50 l0 -43 -34 6 c-31 5 -36 2 -50 -25
-10 -20 -16 -57 -16 -101 0 -59 4 -74 23 -97 18 -21 28 -25 43 -19 10 5 35 9
54 10 l35 0 0 160 c0 153 -1 160 -20 163 -12 2 -24 0 -28 -4z m-9 -207 c2 -37
-1 -49 -13 -54 -22 -8 -35 13 -35 58 0 40 7 51 30 47 10 -2 16 -17 18 -51z"/>
<path d="M8320 2308 c-25 -27 -27 -98 -4 -133 8 -13 33 -31 55 -39 35 -14 40
-20 37 -44 -4 -38 -40 -42 -56 -7 -9 19 -18 25 -35 23 -18 -2 -22 -9 -20 -37
2 -48 33 -76 84 -76 58 0 89 37 89 106 0 42 -5 55 -28 77 -15 15 -43 35 -61
45 -18 9 -31 23 -29 30 7 18 38 21 51 4 7 -9 21 -17 32 -19 26 -4 32 34 11 68
-22 33 -95 35 -126 2z"/>
<path d="M9520 2165 l0 -166 83 3 82 3 3 32 3 32 -53 3 c-52 3 -53 4 -53 33 0
28 3 30 45 35 40 4 45 8 45 30 0 22 -5 26 -45 30 -40 4 -45 8 -45 30 0 23 5
25 50 30 48 5 50 6 50 35 l0 30 -82 3 -83 3 0 -166z"/>
<path d="M9730 2328 c-5 -53 -5 -311 0 -319 4 -6 16 -9 26 -7 18 3 19 15 19
163 0 158 0 160 -22 163 -13 2 -23 2 -23 0z"/>
<path d="M10015 2318 c-2 -7 -3 -80 -2 -163 l2 -150 27 -3 c24 -3 27 0 30 34
4 52 24 54 39 5 11 -35 16 -41 41 -41 34 0 34 2 3 87 l-24 67 19 32 c26 42 25
54 -5 54 -18 0 -31 -9 -43 -30 -9 -16 -20 -30 -24 -30 -4 0 -8 33 -10 73 -3
66 -5 72 -26 75 -12 2 -24 -3 -27 -10z"/>
<path d="M10864 2316 c-10 -26 4 -48 28 -44 17 2 23 10 23 28 0 18 -6 26 -23
28 -13 2 -25 -3 -28 -12z"/>
<path d="M10960 2165 l0 -165 25 0 c21 0 25 5 25 28 0 32 16 60 27 48 4 -4 13
-22 19 -39 8 -24 18 -33 37 -35 33 -4 33 2 5 84 l-23 65 22 39 c15 25 19 41
12 45 -19 12 -55 -4 -67 -30 -21 -45 -32 -28 -32 50 0 73 -1 75 -25 75 l-25 0
0 -165z"/>
<path d="M10243 2298 c-13 -13 -23 -32 -23 -41 0 -9 -4 -19 -10 -22 -5 -3 -10
-19 -10 -35 0 -16 5 -32 10 -35 6 -3 10 -35 10 -71 0 -51 4 -68 21 -85 23 -23
47 -22 62 2 8 13 5 23 -11 44 -29 37 -30 100 -2 115 25 14 26 44 1 67 -11 10
-21 33 -23 51 l-3 34 -22 -24z"/>
<path d="M5220 2218 c-25 -27 -25 -35 -2 -47 14 -7 25 -6 40 5 12 8 27 12 32
9 20 -12 9 -33 -22 -45 -53 -21 -68 -39 -68 -81 0 -30 6 -42 24 -54 22 -15 27
-15 55 -1 19 10 32 12 36 6 3 -6 15 -10 26 -10 17 0 19 8 19 84 0 85 -11 134
-33 148 -26 16 -86 8 -107 -14z m80 -137 c0 -22 -25 -45 -40 -36 -13 8 -13 28
2 43 18 18 38 14 38 -7z"/>
<path d="M5386 2232 c-3 -5 2 -31 10 -58 37 -125 48 -183 34 -199 -7 -8 -19
-15 -27 -15 -10 0 -14 -9 -11 -32 l3 -33 -410 -5 -410 -5 -205 -405 -205 -405
-583 0 -583 0 -194 380 c-107 209 -238 466 -292 570 l-98 190 -530 0 -530 0 0
-60 0 -60 503 -5 503 -5 85 -165 c47 -91 178 -346 290 -568 l206 -402 641 2
642 3 200 397 c110 218 204 400 208 405 5 4 1463 10 3240 13 l3232 5 0 55 0
55 -1970 2 c-1083 2 -1976 5 -1984 8 -9 4 -7 10 10 24 23 18 24 26 27 165 3
126 1 147 -12 152 -9 3 -23 1 -32 -6 -11 -10 -18 -10 -26 -2 -18 18 -46 14
-68 -8 -27 -27 -28 -138 -3 -181 18 -30 55 -40 69 -18 5 8 10 6 16 -5 7 -12 5
-25 -7 -42 -15 -23 -18 -24 -33 -11 -46 41 -84 7 -43 -37 12 -12 18 -26 14
-29 -9 -10 -1603 -9 -1603 1 0 4 6 16 14 27 11 17 76 277 76 306 0 16 -39 9
-48 -8 -6 -10 -13 -42 -17 -70 -4 -29 -11 -53 -15 -53 -5 0 -12 21 -16 48 -10
69 -21 92 -43 92 -11 0 -22 -4 -25 -8z m1744 -114 c0 -41 -24 -63 -41 -37 -13
20 -11 73 3 87 19 19 38 -6 38 -50z"/>
<path d="M5590 2220 c-30 -30 -26 -54 8 -47 60 12 66 12 70 -4 3 -15 -12 -24
-71 -43 -23 -7 -39 -53 -31 -88 7 -36 43 -55 71 -39 11 5 37 7 58 4 l37 -6 -4
101 c-2 81 -7 104 -22 121 -26 28 -88 29 -116 1z m80 -134 c0 -26 -24 -51 -40
-41 -16 10 -12 43 8 54 26 16 32 13 32 -13z"/>
<path d="M5772 2232 c-9 -6 -12 -37 -10 -118 3 -109 3 -109 28 -109 24 0 25 3
30 80 4 66 8 80 23 83 15 3 17 -5 17 -66 0 -86 6 -102 36 -102 24 0 24 1 24
98 0 128 -23 165 -80 130 -15 -10 -22 -10 -32 0 -14 14 -19 15 -36 4z"/>
<path d="M5977 2222 c-10 -10 -17 -26 -17 -34 0 -23 30 -31 50 -13 19 18 36
19 45 5 10 -16 -13 -38 -46 -45 -56 -13 -79 -85 -38 -126 15 -15 27 -19 42
-14 12 4 40 8 62 9 l40 1 -3 95 c-4 119 -16 140 -76 140 -29 0 -48 -6 -59 -18z
m75 -158 c-13 -28 -35 -28 -41 1 -4 23 28 50 43 35 6 -6 5 -19 -2 -36z"/>
<path d="M6154 2227 c-2 -7 -3 -60 -2 -118 3 -104 3 -104 28 -104 24 0 25 3
30 80 4 62 8 80 20 80 12 0 16 -18 20 -80 5 -77 6 -80 30 -80 l25 0 0 102 c0
84 -3 105 -18 120 -15 15 -22 16 -49 5 -21 -8 -36 -8 -42 -2 -14 14 -36 12
-42 -3z"/>
<path d="M6670 2215 c-49 -52 -35 -185 21 -216 35 -18 109 13 109 46 0 19 -34
24 -55 9 -20 -15 -45 -3 -45 21 0 17 23 25 72 25 l41 0 -7 47 c-12 87 -84 123
-136 68z m78 -53 c3 -18 -1 -22 -22 -22 -19 0 -26 5 -26 18 0 39 43 43 48 4z"/>
<path d="M6847 2233 c-4 -3 -7 -57 -7 -120 l0 -113 25 0 c27 0 28 4 25 75 -2
49 16 98 33 93 7 -3 14 -33 17 -84 5 -76 6 -79 30 -79 24 0 25 2 28 82 3 100
-14 153 -50 153 -13 0 -29 -5 -36 -12 -9 -9 -15 -9 -24 0 -13 13 -31 16 -41 5z"/>
<path d="M7247 2222 c-36 -40 -6 -73 40 -44 22 14 43 9 43 -9 0 -6 -20 -19
-45 -30 -25 -11 -49 -28 -55 -39 -27 -50 8 -119 53 -103 12 4 40 7 62 8 l40 0
-1 93 c-2 118 -15 142 -78 142 -29 0 -48 -6 -59 -18z m75 -158 c-13 -28 -35
-28 -41 1 -4 23 28 50 43 35 6 -6 5 -19 -2 -36z"/>
<path d="M7638 2223 c-28 -33 -29 -42 -7 -53 16 -9 24 -8 39 5 19 18 50 14 50
-5 0 -6 -17 -18 -37 -27 -58 -26 -73 -43 -73 -80 0 -43 33 -78 63 -68 12 4 40
8 62 9 25 1 40 6 39 14 -1 6 -2 50 -2 97 -2 70 -5 88 -22 105 -26 26 -91 27
-112 3z m74 -158 c-6 -14 -18 -25 -27 -25 -21 0 -19 47 3 59 25 14 38 -3 24
-34z"/>
<path d="M7830 2220 c-11 -11 -20 -26 -20 -34 0 -20 36 -26 59 -9 22 15 41 10
41 -10 0 -11 -24 -24 -73 -41 -23 -7 -39 -53 -31 -88 7 -36 43 -55 71 -39 11
5 37 8 57 4 l36 -6 0 86 c0 86 -11 135 -33 149 -24 15 -87 8 -107 -12z m80
-139 c0 -22 -25 -45 -40 -36 -16 10 -12 36 7 51 21 15 33 9 33 -15z"/>
<path d="M8004 2227 c-2 -7 -3 -60 -2 -118 3 -104 3 -104 28 -104 24 0 25 3
30 80 4 64 8 80 22 83 19 4 30 -36 28 -100 -3 -65 -2 -68 25 -68 25 0 25 0 25
98 0 129 -22 164 -81 130 -17 -10 -23 -10 -26 0 -6 16 -42 16 -49 -1z"/>
<path d="M8530 2215 c-30 -32 -39 -115 -17 -168 24 -57 83 -71 130 -29 37 32
4 57 -43 32 -13 -7 -21 -6 -30 5 -21 26 -4 47 37 45 68 -3 66 -4 59 47 -12 87
-84 123 -136 68z m64 -31 c17 -7 22 -39 7 -48 -25 -16 -55 26 -34 47 8 8 8 8
27 1z"/>
<path d="M8727 2222 c-25 -27 -35 -64 -33 -118 2 -85 53 -130 116 -104 34 14
56 56 39 76 -16 20 -28 17 -49 -8 -15 -19 -20 -21 -34 -9 -23 19 -18 99 6 115
14 8 20 7 30 -7 17 -22 48 -13 48 14 0 50 -88 80 -123 41z"/>
<path d="M8918 2223 c-28 -33 -29 -42 -7 -53 16 -9 24 -8 39 5 10 9 24 14 29
10 22 -13 10 -33 -31 -50 -51 -20 -58 -29 -58 -77 0 -48 33 -74 74 -59 14 6
39 8 56 5 l30 -6 0 93 c0 122 -11 143 -71 147 -34 2 -49 -2 -61 -15z m71 -156
c-14 -31 -34 -35 -44 -10 -4 12 1 24 16 36 29 23 44 9 28 -26z"/>
<path d="M9095 2231 c-3 -2 -5 -55 -5 -118 0 -112 0 -113 24 -113 22 0 23 4
29 76 5 64 9 79 31 99 14 13 26 33 26 43 0 17 -7 20 -50 19 -28 0 -53 -3 -55
-6z"/>
<path d="M9240 2220 c-25 -25 -25 -37 -2 -49 14 -7 25 -6 40 5 12 8 27 12 32
9 22 -13 8 -34 -34 -50 -66 -26 -83 -74 -42 -122 21 -24 26 -26 49 -16 14 7
42 9 61 6 l36 -6 0 86 c0 86 -11 135 -33 149 -24 15 -87 8 -107 -12z m80 -139
c0 -22 -25 -45 -40 -36 -13 8 -13 28 2 43 18 18 38 14 38 -7z"/>
<path d="M9841 2214 c-45 -57 -32 -186 22 -212 46 -22 107 6 107 49 0 13 -44
11 -59 -3 -10 -11 -15 -9 -27 7 -21 29 -12 40 37 43 24 1 49 4 55 6 19 7 -2
98 -27 119 -32 26 -83 22 -108 -9z m79 -43 c15 -28 13 -31 -20 -31 -31 0 -39
17 -18 38 17 17 26 15 38 -7z"/>
<path d="M10347 2233 c-4 -3 -7 -57 -7 -120 0 -112 0 -113 24 -113 22 0 23 4
29 76 5 64 9 79 31 99 30 28 35 65 8 65 -10 0 -23 -5 -29 -11 -8 -8 -13 -8
-17 0 -8 12 -29 15 -39 4z"/>
<path d="M10501 2221 c-26 -26 -44 -94 -36 -134 20 -95 97 -124 146 -56 38 53
21 185 -26 203 -31 11 -65 6 -84 -13z m73 -63 c10 -39 7 -73 -9 -94 -15 -19
-15 -19 -30 0 -18 24 -20 87 -3 104 18 18 35 14 42 -10z"/>
<path d="M10674 2228 c-5 -7 -9 -60 -9 -118 l0 -105 28 -3 27 -3 0 70 c0 77 6
101 25 101 19 0 25 -24 25 -101 0 -67 1 -69 25 -69 25 0 25 0 25 98 0 72 -4
103 -16 120 -17 24 -43 29 -62 10 -9 -9 -15 -9 -24 0 -15 15 -33 15 -44 0z"/>
<path d="M10864 2227 c-2 -7 -3 -60 -2 -118 3 -104 3 -104 28 -104 25 0 25 1
28 95 2 52 0 105 -3 118 -6 24 -42 31 -51 9z"/>
</g>
</svg>
