<?xml version="1.0" standalone="no"?>
<!DOCTYPE svg PUBLIC "-//W3C//DTD SVG 20010904//EN"
 "http://www.w3.org/TR/2001/REC-SVG-20010904/DTD/svg10.dtd">
<svg version="1.0" xmlns="http://www.w3.org/2000/svg"
 width="100.8002mm" height="32.6139mm" viewBox="0 0 1920.000000 1920.000000"
 preserveAspectRatio="xMidYMid meet">

<g transform="translate(0.000000,1920.000000) scale(0.100000,-0.100000)"
fill="#000000" stroke="none">
<path d="M9235 14099 c-870 -75 -1693 -390 -2391 -916 -486 -365 -917 -854
-1221 -1383 -108 -187 -269 -524 -289 -605 l-6 -25 457 2 457 3 102 200 c56
110 132 249 169 310 517 836 1306 1462 2230 1770 1495 498 3136 114 4248 -995
334 -333 588 -683 790 -1088 41 -81 75 -149 77 -151 1 -2 5 -1 9 2 10 10 -43
133 -138 322 -606 1205 -1698 2093 -2984 2425 -246 64 -504 107 -770 130 -141
12 -597 11 -740 -1z"/>
<path d="M9755 13373 c-1107 -92 -2092 -620 -2770 -1488 -187 -238 -458 -686
-431 -712 5 -4 12 -1 17 7 100 169 180 297 230 368 434 605 1040 1053 1744
1287 384 128 708 179 1125 179 251 0 370 -9 590 -45 589 -97 1150 -348 1625
-725 140 -112 415 -387 529 -529 96 -121 249 -346 317 -467 l43 -78 388 0
c258 0 388 3 388 10 0 33 -146 295 -265 475 -365 553 -869 1000 -1470 1305
-446 227 -938 367 -1440 410 -109 9 -523 11 -620 3z"/>
<path d="M5575 10809 c-358 -33 -652 -222 -751 -484 -48 -128 -49 -313 -4
-442 82 -235 314 -408 640 -480 64 -14 184 -17 820 -23 520 -4 755 -10 778
-18 61 -20 122 -62 138 -94 34 -66 2 -138 -81 -180 -92 -48 -88 -48 -1000 -48
-473 0 -865 -4 -871 -8 -11 -8 -454 -600 -454 -607 0 -3 505 -5 1123 -5 939 0
1137 2 1213 15 241 39 424 133 578 296 80 85 133 179 162 289 24 89 24 271 0
365 -74 293 -318 501 -691 591 -61 15 -163 18 -795 23 -560 5 -730 9 -747 19
-49 27 -58 94 -19 139 l24 28 858 5 858 5 228 308 c125 169 228 309 228 312 0
9 -2140 3 -2235 -6z"/>
<path d="M8623 10798 c-32 -36 -445 -580 -450 -595 -4 -10 197 -13 1049 -15
l1053 -3 55 -26 c120 -56 177 -142 168 -254 -11 -133 -105 -226 -257 -255 -34
-6 -424 -10 -1067 -10 l-1014 0 0 -610 0 -610 360 0 360 0 0 300 0 300 666 0
c722 0 780 3 962 56 309 89 558 294 656 538 60 151 71 364 26 524 -103 371
-472 629 -960 672 -64 5 -439 10 -851 10 l-736 0 -20 -22z"/>
<path d="M11507 10813 c-4 -4 -7 -544 -7 -1200 l1 -1193 359 0 360 0 0 395 c0
217 3 395 8 395 4 -1 252 -178 552 -395 l544 -395 545 0 c299 0 542 2 540 4
-2 2 -247 176 -544 388 -297 211 -665 474 -818 582 -153 109 -277 202 -275
206 2 5 363 275 803 600 440 326 807 598 815 606 12 12 -62 14 -521 14 l-535
0 -552 -410 c-304 -225 -555 -410 -557 -410 -3 0 -5 185 -5 410 l0 410 -353 0
c-195 0 -357 -3 -360 -7z"/>
<path d="M5334 8005 c20 -81 181 -418 289 -605 304 -529 735 -1018 1221 -1383
706 -532 1522 -842 2411 -917 155 -13 566 -13 720 0 753 64 1450 299 2085 703
751 478 1353 1168 1735 1989 67 144 75 166 62 168 -5 0 -30 -44 -57 -99 -694
-1419 -2155 -2331 -3735 -2331 -1450 0 -2787 748 -3552 1985 -37 61 -113 200
-169 310 l-102 200 -457 3 -457 2 6 -25z"/>
<path d="M6550 8018 c0 -6 25 -59 56 -117 478 -905 1284 -1585 2248 -1897 232
-75 444 -122 716 -159 156 -22 605 -31 785 -16 516 43 1007 181 1460 411 601
305 1105 752 1470 1305 119 180 265 442 265 475 0 7 -130 10 -388 10 l-388 0
-43 -77 c-68 -122 -221 -347 -317 -468 -114 -142 -389 -417 -529 -529 -899
-715 -2072 -950 -3183 -640 -834 233 -1560 778 -2016 1512 -40 64 -83 136 -95
160 -20 40 -41 55 -41 30z"/>
</g>
</svg>
