<?xml version="1.0" standalone="no"?>
<!DOCTYPE svg PUBLIC "-//W3C//DTD SVG 20010904//EN"
 "http://www.w3.org/TR/2001/REC-SVG-20010904/DTD/svg10.dtd">
<svg version="1.0" xmlns="http://www.w3.org/2000/svg"
 width="157.000000pt" height="70.000000pt" viewBox="0 0 157.000000 70.000000"
 preserveAspectRatio="xMidYMid meet">

<g transform="translate(0.000000,70.000000) scale(0.100000,-0.100000)"
fill="#000000" stroke="none">
<path d="M393 638 c-5 -7 -24 -39 -42 -71 l-33 -57 37 -65 36 -65 79 0 79 0
37 63 37 62 -39 73 -39 72 -71 0 c-45 0 -75 -5 -81 -12z"/>
<path d="M117 463 c-63 -100 -63 -97 -21 -169 l38 -64 81 0 80 0 38 66 38 65
-38 67 -39 67 -77 3 -76 3 -24 -38z"/>
<path d="M650 365 l0 -135 145 0 145 0 0 50 0 50 50 0 c41 0 56 5 76 25 19 20
29 23 39 15 7 -6 37 -18 66 -28 42 -13 54 -22 54 -37 0 -30 -64 -35 -72 -6 -7
28 -83 31 -83 4 1 -55 86 -93 160 -73 22 6 42 15 45 20 9 15 25 12 25 -5 0
-12 19 -15 115 -15 l115 0 0 30 0 30 -75 0 c-73 0 -75 1 -75 25 0 24 2 25 65
25 l65 0 0 30 0 30 -65 0 c-58 0 -65 2 -65 20 0 18 7 20 70 20 l70 0 0 30 0
30 -110 0 -110 0 0 -25 c0 -25 0 -25 -20 -5 -11 11 -31 22 -45 26 -40 10 -114
-2 -135 -21 -19 -17 -21 -17 -40 0 -16 15 -42 20 -110 23 l-90 4 0 -106 0
-106 -65 0 -65 0 0 105 0 105 -40 0 -40 0 0 -135z m566 70 c4 -10 20 -15 45
-15 37 0 39 -2 39 -30 l0 -29 -32 19 c-18 10 -50 22 -71 25 -39 8 -52 18 -42
35 10 15 55 12 61 -5z m-212 -11 c9 -22 -11 -44 -40 -44 -20 0 -24 5 -24 30 0
26 3 30 29 30 17 0 31 -6 35 -16z"/>
<path d="M140 200 c0 -6 29 -10 74 -10 l75 0 41 -75 41 -75 100 0 99 0 42 75
43 75 438 0 c290 0 436 3 432 10 -4 6 -162 10 -440 10 l-435 0 -42 -75 -43
-75 -95 0 -95 0 -40 73 -40 72 -78 3 c-48 2 -77 -1 -77 -8z"/>
</g>
</svg>
